<svg width="62" height="39" viewBox="0 0 62 39" fill="none" xmlns="http://www.w3.org/2000/svg">
<circle cx="8" cy="22" r="8" fill="#616FF2"/>
<circle cx="54" cy="22" r="8" fill="#616FF2"/>
<path fill-rule="evenodd" clip-rule="evenodd" d="M19.4714 37.615C19.0366 37.8601 18.5347 38 18 38C16.3431 38 15 36.6569 15 35C15 33.3431 16.3431 32 18 32C19.0623 32 19.9956 32.5521 20.5286 33.385C20.9634 33.1399 21.4653 33 22 33C22.5347 33 23.0366 33.1399 23.4714 33.385C24.0044 32.5521 24.9377 32 26 32C27.6569 32 29 33.3431 29 35C29 36.6569 27.6569 38 26 38C25.4653 38 24.9634 37.8601 24.5286 37.615C23.9956 38.4479 23.0623 39 22 39C20.9377 39 20.0044 38.4479 19.4714 37.615Z" fill="#FFD595"/>
<path fill-rule="evenodd" clip-rule="evenodd" d="M37.4714 37.615C37.0366 37.8601 36.5347 38 36 38C34.3431 38 33 36.6569 33 35C33 33.3431 34.3431 32 36 32C37.0623 32 37.9956 32.5521 38.5286 33.385C38.9634 33.1399 39.4653 33 40 33C40.5347 33 41.0366 33.1399 41.4714 33.385C42.0044 32.5521 42.9377 32 44 32C45.6569 32 47 33.3431 47 35C47 36.6569 45.6569 38 44 38C43.4653 38 42.9634 37.8601 42.5286 37.615C41.9956 38.4479 41.0623 39 40 39C38.9377 39 38.0044 38.4479 37.4714 37.615Z" fill="#FFD595"/>
<path d="M12.9999 12.5C16.9999 8.5 19.0441 8.62407 24.0002 6.5C26.1629 5.57309 28.1375 3.3097 29.3305 1.71551C30.0113 0.805876 31.29 0.531079 32.2031 1.2072C33.3068 2.02452 34.9274 3.27277 37.0001 5C40.0001 7.5 42.5792 7.82199 46.0001 10.5C51.5001 14.8056 54.3179 18.5 53.5071 25.5C53.4414 26.0675 53.2755 26.6435 53.039 27.2143C50.8521 32.4916 44.3916 34 38.6792 34H23.881C17.8372 34 11.3272 31.9487 9.51162 26.1841C9.29334 25.491 9.11718 24.7616 9.00001 24C7.92308 17 9.72674 15.7732 12.9999 12.5Z" fill="#93B1FF"/>
<rect x="15" y="16" width="10" height="10" rx="3" fill="#DFE8FF"/>
<rect x="36" y="16" width="10" height="10" rx="3" fill="#DFE8FF"/>
<path d="M21 21V21.0857C21 21.7485 20.4627 22.2857 19.8 22.2857V22.2857C19.1373 22.2857 18.6 21.7485 18.6 21.0857V21C18.6 20.2899 19.1756 19.7143 19.8857 19.7143H20.6C21.7046 19.7143 22.6 20.6097 22.6 21.7143V22C22.6 23.1046 21.7046 24 20.6 24H19C17.8954 24 17 23.1046 17 22V20C17 18.8954 17.8954 18 19 18H21.6541C22.2312 18 22.756 18.3342 23 18.8571V18.8571" stroke="#616FF2" stroke-linecap="round"/>
<path d="M42 21V21.0857C42 21.7485 41.4627 22.2857 40.8 22.2857V22.2857C40.1373 22.2857 39.6 21.7485 39.6 21.0857V21C39.6 20.2899 40.1756 19.7143 40.8857 19.7143H41.6C42.7046 19.7143 43.6 20.6097 43.6 21.7143V22C43.6 23.1046 42.7046 24 41.6 24H40C38.8954 24 38 23.1046 38 22V20C38 18.8954 38.8954 18 40 18H42.6541C43.2312 18 43.756 18.3342 44 18.8571V18.8571" stroke="#616FF2" stroke-linecap="round"/>
<rect x="23" y="21" width="16" height="10" rx="5" fill="#ACC3FF"/>
<rect x="28" y="21" width="6" height="3" rx="1.5" fill="#616FF2"/>
<path d="M26.5 27.5V27.5C26.5 26.3954 27.3954 25.5 28.5 25.5H33.5C34.6046 25.5 35.5 26.3954 35.5 27.5V27.5" stroke="#616FF2" stroke-width="1.5" stroke-linecap="round"/>
</svg>
